ffmpeg started on 2025-06-23 at 21:11:01
Report written to "D:\Convert\FFMetrics\reports\psnr_report-6.txt"
Log level: 32
Command line:
ffmpeg -hide_banner -nostdin -i "G:\\\xc0\xed\xe8\xec\xe5\\[\xd2\xee\xef-4]\\\xcc\xee\xe6\xe5\xf2, \xff \xe2\xf1\xf2\xf0\xe5\xf7\xf3 \xf2\xe5\xe1\xff \xe2 \xef\xee\xe4\xe7\xe5\xec\xe5\xeb\xfc\xe5\\\xd2\xc2-2\\Danmachi_Sword_Oratoria_[11]_[AniLibria_TV]_[HDTV-Rip]_HEVC.mkv" -i "G:\\\xc0\xed\xe8\xec\xe5\\[\xd2\xee\xef-4]\\\xcc\xee\xe6\xe5\xf2, \xff \xe2\xf1\xf2\xf0\xe5\xf7\xf3 \xf2\xe5\xe1\xff \xe2 \xef\xee\xe4\xe7\xe5\xec\xe5\xeb\xfc\xe5\\\xd2\xc2-2\\Danmachi_Sword_Oratoria_[11]_[AniLibria_TV]_[HDTV-Rip].mkv" -lavfi "[0:v]settb=AVTB,setpts=PTS-STARTPTS,format=pix_fmts=yuv420p10,fps=24000/1001,scale=1280:720:flags=bicubic[main];[1:v]settb=AVTB,setpts=PTS-STARTPTS,format=pix_fmts=yuv420p,fps=24000/1001,scale=1280:720:flags=bicubic[ref];[main][ref]psnr=eof_action=endall:stats_file='D\\:/Convert/FFMetrics/logs/psnr_logfile-6.txt'" -f null -
Input #0, matroska,webm, from 'G:\Аниме\[Топ-4]\Может, я встречу тебя в подземелье\ТВ-2\Danmachi_Sword_Oratoria_[11]_[AniLibria_TV]_[HDTV-Rip]_HEVC.mkv':
  Metadata:
    ENCODER         : Lavf61.7.100
  Duration: 00:23:59.89, start: -0.021000, bitrate: 737 kb/s
  Stream #0:0(jpn): Video: hevc (Main 10), yuv420p10le(tv, bt709, progressive), 1280x720 [SAR 1:1 DAR 16:9], 23.98 fps, 23.98 tbr, 1k tbn (default) (forced)
      Metadata:
        title           : [Leopard-Raws]
        ENCODER         : Lavc61.19.100 libx265
        BPS             : 539460
        DURATION        : 00:23:59.771708333
        NUMBER_OF_FRAMES: 34520
        NUMBER_OF_BYTES : 97087412
        _STATISTICS_WRITING_APP: mkvpropedit v66.0.0 ('Josie') 64-bit
        _STATISTICS_WRITING_DATE_UTC: 2025-06-23 11:29:54
        _STATISTICS_TAGS: BPS DURATION NUMBER_OF_FRAMES NUMBER_OF_BYTES
  Stream #0:1(rus): Audio: aac (LC), 48000 Hz, stereo, fltp (default) (forced)
      Metadata:
        title           : LeeAnnushka & Sharon
        ENCODER         : Lavc61.19.100 aac
        BPS             : 194150
        DURATION        : 00:23:59.871000000
        NUMBER_OF_FRAMES: 67495
        NUMBER_OF_BYTES : 34944006
        _STATISTICS_WRITING_APP: mkvpropedit v66.0.0 ('Josie') 64-bit
        _STATISTICS_WRITING_DATE_UTC: 2025-06-23 11:29:54
        _STATISTICS_TAGS: BPS DURATION NUMBER_OF_FRAMES NUMBER_OF_BYTES
  Stream #0:2(rus): Subtitle: ass (ssa) (default) (forced)
      Metadata:
        title           : Надписи
        BPS             : 66
        DURATION        : 00:23:49.740000000
        NUMBER_OF_FRAMES: 40
        NUMBER_OF_BYTES : 11874
        _STATISTICS_WRITING_APP: mkvpropedit v66.0.0 ('Josie') 64-bit
        _STATISTICS_WRITING_DATE_UTC: 2025-06-23 11:29:54
        _STATISTICS_TAGS: BPS DURATION NUMBER_OF_FRAMES NUMBER_OF_BYTES
  Stream #0:3(rus): Subtitle: ass (ssa)
      Metadata:
        title           : Полные
        BPS             : 188
        DURATION        : 00:23:49.740000000
        NUMBER_OF_FRAMES: 340
        NUMBER_OF_BYTES : 33743
        _STATISTICS_WRITING_APP: mkvpropedit v66.0.0 ('Josie') 64-bit
        _STATISTICS_WRITING_DATE_UTC: 2025-06-23 11:29:54
        _STATISTICS_TAGS: BPS DURATION NUMBER_OF_FRAMES NUMBER_OF_BYTES
Input #1, matroska,webm, from 'G:\Аниме\[Топ-4]\Может, я встречу тебя в подземелье\ТВ-2\Danmachi_Sword_Oratoria_[11]_[AniLibria_TV]_[HDTV-Rip].mkv':
  Metadata:
    encoder         : libebml v1.4.2 + libmatroska v1.6.4
    creation_time   : 2025-01-14T16:52:49.000000Z
  Duration: 00:23:59.87, start: 0.000000, bitrate: 2874 kb/s
  Stream #1:0(jpn): Video: h264 (High), yuv420p(tv, bt709, progressive), 1280x720 [SAR 1:1 DAR 16:9], 23.98 fps, 23.98 tbr, 1k tbn (default) (forced)
      Metadata:
        title           : [Leopard-Raws]
        BPS             : 2677518
        DURATION        : 00:23:59.772000000
        NUMBER_OF_FRAMES: 34520
        NUMBER_OF_BYTES : 481876989
        _STATISTICS_WRITING_APP: mkvmerge v66.0.0 ('Josie') 64-bit
        _STATISTICS_WRITING_DATE_UTC: 2025-01-14 16:52:49
        _STATISTICS_TAGS: BPS DURATION NUMBER_OF_FRAMES NUMBER_OF_BYTES
  Stream #1:1(rus): Audio: aac (LC), 48000 Hz, stereo, fltp (default) (forced)
      Metadata:
        title           : LeeAnnushka & Sharon
        BPS             : 192092
        DURATION        : 00:23:59.871000000
        NUMBER_OF_FRAMES: 67494
        NUMBER_OF_BYTES : 34573565
        _STATISTICS_WRITING_APP: mkvmerge v66.0.0 ('Josie') 64-bit
        _STATISTICS_WRITING_DATE_UTC: 2025-01-14 16:52:49
        _STATISTICS_TAGS: BPS DURATION NUMBER_OF_FRAMES NUMBER_OF_BYTES
  Stream #1:2(rus): Subtitle: ass (ssa) (default) (forced)
      Metadata:
        title           : Надписи
        BPS             : 66
        DURATION        : 00:23:49.740000000
        NUMBER_OF_FRAMES: 40
        NUMBER_OF_BYTES : 11874
        _STATISTICS_WRITING_APP: mkvmerge v66.0.0 ('Josie') 64-bit
        _STATISTICS_WRITING_DATE_UTC: 2025-01-14 16:52:49
        _STATISTICS_TAGS: BPS DURATION NUMBER_OF_FRAMES NUMBER_OF_BYTES
  Stream #1:3(rus): Subtitle: ass (ssa)
      Metadata:
        title           : Полные
        BPS             : 188
        DURATION        : 00:23:49.740000000
        NUMBER_OF_FRAMES: 340
        NUMBER_OF_BYTES : 33743
        _STATISTICS_WRITING_APP: mkvmerge v66.0.0 ('Josie') 64-bit
        _STATISTICS_WRITING_DATE_UTC: 2025-01-14 16:52:49
        _STATISTICS_TAGS: BPS DURATION NUMBER_OF_FRAMES NUMBER_OF_BYTES
  Stream #1:4: Attachment: ttf
      Metadata:
        filename        : 9808.ttf
        mimetype        : application/x-truetype-font
  Stream #1:5: Attachment: ttf
      Metadata:
        filename        : 10119.ttf
        mimetype        : application/x-truetype-font
  Stream #1:6: Attachment: ttf
      Metadata:
        filename        : 10323.ttf
        mimetype        : application/x-truetype-font
Stream mapping:
  Stream #0:0 (hevc) -> settb:default
  Stream #1:0 (h264) -> settb:default
  psnr:default -> Stream #0:0 (wrapped_avframe)
  Stream #0:1 -> #0:1 (aac (native) -> pcm_s16le (native))
Output #0, null, to 'pipe:':
  Metadata:
    encoder         : Lavf61.7.100
  Stream #0:0: Video: wrapped_avframe, yuv420p10le(tv, bt709, progressive), 1280x720 [SAR 1:1 DAR 16:9], q=2-31, 200 kb/s, 23.98 fps, 23.98 tbn
      Metadata:
        encoder         : Lavc61.19.100 wrapped_avframe
  Stream #0:1(rus): Audio: pcm_s16le, 48000 Hz, stereo, s16, 1536 kb/s (default) (forced)
      Metadata:
        title           : LeeAnnushka & Sharon
        _STATISTICS_TAGS: BPS DURATION NUMBER_OF_FRAMES NUMBER_OF_BYTES
        BPS             : 194150
        DURATION        : 00:23:59.871000000
        NUMBER_OF_FRAMES: 67495
        NUMBER_OF_BYTES : 34944006
        _STATISTICS_WRITING_APP: mkvpropedit v66.0.0 ('Josie') 64-bit
        _STATISTICS_WRITING_DATE_UTC: 2025-06-23 11:29:54
        encoder         : Lavc61.19.100 pcm_s16le
frame=  507 fps=0.0 q=-0.0 size=N/A time=00:00:21.14 bitrate=N/A speed=40.2x    frame= 1095 fps=1056 q=-0.0 size=N/A time=00:00:45.67 bitrate=N/A speed=  44x    frame= 1657 fps=1073 q=-0.0 size=N/A time=00:01:09.11 bitrate=N/A speed=44.8x    frame= 2183 fps=1056 q=-0.0 size=N/A time=00:01:31.04 bitrate=N/A speed=  44x    frame= 2572 fps=998 q=-0.0 size=N/A time=00:01:47.27 bitrate=N/A speed=41.6x    frame= 3000 fps=966 q=-0.0 size=N/A time=00:02:05.12 bitrate=N/A speed=40.3x    frame= 3405 fps=942 q=-0.0 size=N/A time=00:02:22.01 bitrate=N/A speed=39.3x    frame= 3800 fps=921 q=-0.0 size=N/A time=00:02:38.49 bitrate=N/A speed=38.4x    frame= 4167 fps=896 q=-0.0 size=N/A time=00:02:53.79 bitrate=N/A speed=37.4x    frame= 4546 fps=881 q=-0.0 size=N/A time=00:03:09.60 bitrate=N/A speed=36.8x    frame= 5095 fps=897 q=-0.0 size=N/A time=00:03:32.50 bitrate=N/A speed=37.4x    frame= 5508 fps=890 q=-0.0 size=N/A time=00:03:49.72 bitrate=N/A speed=37.1x    frame= 6074 fps=906 q=-0.0 size=N/A time=00:04:13.33 bitrate=N/A speed=37.8x    frame= 6690 fps=926 q=-0.0 size=N/A time=00:04:39.02 bitrate=N/A speed=38.6x    frame= 7298 fps=944 q=-0.0 size=N/A time=00:05:04.38 bitrate=N/A speed=39.4x    frame= 7954 fps=963 q=-0.0 size=N/A time=00:05:31.74 bitrate=N/A speed=40.2x    frame= 8576 fps=978 q=-0.0 size=N/A time=00:05:57.69 bitrate=N/A speed=40.8x    frame= 9096 fps=980 q=-0.0 size=N/A time=00:06:19.37 bitrate=N/A speed=40.9x    frame= 9708 fps=991 q=-0.0 size=N/A time=00:06:44.90 bitrate=N/A speed=41.3x    frame=10276 fps=996 q=-0.0 size=N/A time=00:07:08.59 bitrate=N/A speed=41.5x    frame=10953 fps=1011 q=-0.0 size=N/A time=00:07:36.83 bitrate=N/A speed=42.2x    frame=11546 fps=1018 q=-0.0 size=N/A time=00:08:01.56 bitrate=N/A speed=42.4x    frame=12233 fps=1031 q=-0.0 size=N/A time=00:08:30.21 bitrate=N/A speed=  43x    frame=12851 fps=1038 q=-0.0 size=N/A time=00:08:55.99 bitrate=N/A speed=43.3x    frame=13525 fps=1049 q=-0.0 size=N/A time=00:09:24.10 bitrate=N/A speed=43.8x    frame=14199 fps=1058 q=-0.0 size=N/A time=00:09:52.21 bitrate=N/A speed=44.1x    frame=14838 fps=1065 q=-0.0 size=N/A time=00:10:18.86 bitrate=N/A speed=44.4x    frame=15343 fps=1063 q=-0.0 size=N/A time=00:10:39.93 bitrate=N/A speed=44.3x    frame=15802 fps=1056 q=-0.0 size=N/A time=00:10:59.07 bitrate=N/A speed=  44x    frame=16267 fps=1051 q=-0.0 size=N/A time=00:11:18.46 bitrate=N/A speed=43.8x    frame=16621 fps=1040 q=-0.0 size=N/A time=00:11:33.23 bitrate=N/A speed=43.4x    frame=17048 fps=1033 q=-0.0 size=N/A time=00:11:51.04 bitrate=N/A speed=43.1x    frame=17500 fps=1029 q=-0.0 size=N/A time=00:12:09.89 bitrate=N/A speed=42.9x    frame=17936 fps=1023 q=-0.0 size=N/A time=00:12:28.08 bitrate=N/A speed=42.7x    frame=18340 fps=1016 q=-0.0 size=N/A time=00:12:44.93 bitrate=N/A speed=42.4x    frame=18742 fps=1010 q=-0.0 size=N/A time=00:13:01.69 bitrate=N/A speed=42.1x    frame=19118 fps=1002 q=-0.0 size=N/A time=00:13:17.37 bitrate=N/A speed=41.8x    frame=19539 fps=997 q=-0.0 size=N/A time=00:13:34.93 bitrate=N/A speed=41.6x    frame=20126 fps=1001 q=-0.0 size=N/A time=00:13:59.42 bitrate=N/A speed=41.8x    frame=20610 fps=999 q=-0.0 size=N/A time=00:14:19.60 bitrate=N/A speed=41.7x    frame=21139 fps=1000 q=-0.0 size=N/A time=00:14:41.67 bitrate=N/A speed=41.7x    frame=21657 fps=1000 q=-0.0 size=N/A time=00:15:03.27 bitrate=N/A speed=41.7x    frame=22146 fps=998 q=-0.0 size=N/A time=00:15:23.67 bitrate=N/A speed=41.6x    frame=22671 fps=999 q=-0.0 size=N/A time=00:15:45.56 bitrate=N/A speed=41.7x    frame=23297 fps=1004 q=-0.0 size=N/A time=00:16:11.67 bitrate=N/A speed=41.9x    frame=23926 fps=1009 q=-0.0 size=N/A time=00:16:37.91 bitrate=N/A speed=42.1x    frame=24362 fps=1005 q=-0.0 size=N/A time=00:16:56.09 bitrate=N/A speed=41.9x    frame=24896 fps=1006 q=-0.0 size=N/A time=00:17:18.37 bitrate=N/A speed=41.9x    frame=25346 fps=1003 q=-0.0 size=N/A time=00:17:37.13 bitrate=N/A speed=41.8x    frame=25980 fps=1007 q=-0.0 size=N/A time=00:18:03.58 bitrate=N/A speed=  42x    frame=26537 fps=1009 q=-0.0 size=N/A time=00:18:26.81 bitrate=N/A speed=42.1x    frame=27194 fps=1014 q=-0.0 size=N/A time=00:18:54.21 bitrate=N/A speed=42.3x    frame=27868 fps=1020 q=-0.0 size=N/A time=00:19:22.32 bitrate=N/A speed=42.5x    frame=28472 fps=1022 q=-0.0 size=N/A time=00:19:47.51 bitrate=N/A speed=42.6x    frame=29041 fps=1023 q=-0.0 size=N/A time=00:20:11.25 bitrate=N/A speed=42.7x    frame=29545 fps=1022 q=-0.0 size=N/A time=00:20:32.27 bitrate=N/A speed=42.6x    frame=30017 fps=1021 q=-0.0 size=N/A time=00:20:51.95 bitrate=N/A speed=42.6x    frame=30537 fps=1020 q=-0.0 size=N/A time=00:21:13.64 bitrate=N/A speed=42.6x    frame=31061 fps=1020 q=-0.0 size=N/A time=00:21:35.50 bitrate=N/A speed=42.6x    frame=31586 fps=1020 q=-0.0 size=N/A time=00:21:57.39 bitrate=N/A speed=42.5x    frame=32141 fps=1021 q=-0.0 size=N/A time=00:22:20.54 bitrate=N/A speed=42.6x    frame=32679 fps=1021 q=-0.0 size=N/A time=00:22:42.98 bitrate=N/A speed=42.6x    frame=33162 fps=1020 q=-0.0 size=N/A time=00:23:03.13 bitrate=N/A speed=42.5x    frame=33645 fps=1019 q=-0.0 size=N/A time=00:23:23.27 bitrate=N/A speed=42.5x    frame=34176 fps=1019 q=-0.0 size=N/A time=00:23:45.42 bitrate=N/A speed=42.5x    [Parsed_psnr_10 @ 00000139e84ddf00] PSNR y:46.996812 u:49.370166 v:49.549576 average:47.673316 min:39.631121 max:60.415554
[out#0/null @ 00000139e5b60240] video:14833KiB audio:269980KiB subtitle:0KiB other streams:0KiB global headers:0KiB muxing overhead: unknown
frame=34520 fps=1019 q=-0.0 Lsize=N/A time=00:23:59.77 bitrate=N/A speed=42.5x    
